<!DOCTYPE svg PUBLIC "-//W3C//DTD SVG 1.1//EN" "http://www.w3.org/Graphics/SVG/1.1/DTD/svg11.dtd">
<!-- Uploaded to: SVG Repo, www.svgrepo.com, Transformed by: SVG Repo Mixer Tools -->
<svg width="800px" height="800px" viewBox="-12.8 -12.8 153.60 153.60" version="1.1" xml:space="preserve" xmlns="http://www.w3.org/2000/svg" xmlns:xlink="http://www.w3.org/1999/xlink" fill="#000000" transform="matrix(1, 0, 0, 1, 0, 0)">
<g id="SVGRepo_bgCarrier" stroke-width="0">
<path transform="translate(-12.8,-12.8)" d="M76.8,123.53755892117817C91.58413316714609,127.81505001067639,106.21833427437596,143.10705170489396,120.00538088024462,136.26710511063962C133.23089897325613,129.70574066301117,130.14671708304985,109.61954111739402,133.72526402942043,95.29613949641727C136.9991427494919,82.19219522274689,145.49538488419762,68.60240628789238,139.99240615179573,56.267542588932095C134.54466216194078,44.05648693174236,117.94827225087784,42.90683805281474,106.9561894863342,35.29356600070674C96.33776298786168,27.93909356542389,89.7041721614052,11.932501610376148,76.8,12.499587965011596C63.82997573447313,13.069568254198158,58.60764891132872,29.702248791435395,48.50991902164327,37.86204401272435C39.18806765412185,45.394865654147424,26.525821498841317,48.276681039088245,20.04774264468538,58.36007377957944C12.345504956331723,70.34891944521347,3.070787178355931,85.93792893391931,9.43136782608158,98.68939550157596C15.939430871414274,111.73652955095484,34.92455898994674,110.5630500829068,48.60394634024704,115.60853848591901C57.99375374582159,119.07186349881184,67.18615774851457,120.75598734700189,76.8,123.53755892117817" fill="#82d6f2" strokewidth="0"/>
</g>
<g id="SVGRepo_iconCarrier"> <style type="text/css"> .st0{display:none;} .st1{display:inline;} .st2{fill:none;stroke:#000000;stroke-width:3.968;stroke-linecap:round;stroke-linejoin:round;stroke-miterlimit:10;} </style> <g class="st0" id="Layer_1"/> <g id="Layer_2"> <path class="st2" d="M20.1,40l38.1,31.5c3.3,2.8,8.2,2.8,11.5,0L107.9,40"/> <path class="st2" d="M107.9,85.6V36.1c0-2.1-1.7-3.7-3.7-3.7H23.9c-2.1,0-3.7,1.7-3.7,3.7v55.7c0,2.1,1.7,3.7,3.7,3.7h84"/> </g> </g>
</svg>